<svg xmlns="http://www.w3.org/2000/svg" xmlns:xlink="http://www.w3.org/1999/xlink" width="2000" zoomAndPan="magnify" viewBox="0 0 1500 1499.999933" height="2000" preserveAspectRatio="xMidYMid meet" version="1.0"><defs><g/><clipPath id="83cfd2b984"><path d="M 155 1052 L 1347.5625 1052 L 1347.5625 1500 L 155 1500 Z M 155 1052 " clip-rule="nonzero"/></clipPath></defs><path fill="#00355D" d="M 796.238281 5.261719 C 787.367188 7.660156 765.398438 0.488281 748.417969 6.664062 C 731.433594 12.84375 715.871094 21.097656 701.511719 30.597656 C 687.15625 40.101562 673.796875 50.425781 663.183594 61.808594 C 652.570312 73.195312 646.257812 83.675781 641.445312 94.949219 C 636.628906 106.222656 633.34375 118.253906 631.441406 130.996094 C 629.539062 143.738281 628.867188 157.203125 630.671875 173.539062 C 632.476562 189.875 636.566406 205.878906 642.636719 220.097656 C 648.703125 234.320312 656.542969 246.832031 666.335938 257.445312 C 676.125 268.0625 687.832031 276.59375 705.148438 282.90625 C 722.46875 289.21875 741.695312 293.21875 759.691406 294.328125 C 777.691406 295.441406 794.363281 293.25 809.101562 287.332031 C 823.839844 281.414062 835.535156 271.488281 839.417969 260.632812 C 843.300781 249.773438 838.453125 243.980469 833.6875 247.96875 C 833.6875 247.96875 817.632812 246.191406 807.910156 248.636719 C 798.183594 251.082031 787.683594 252.597656 775.292969 252.667969 C 762.902344 252.734375 748.285156 251.277344 731.757812 247.617188 C 715.234375 243.957031 707.792969 240.617188 700.257812 235.839844 C 692.722656 231.0625 686.070312 224.199219 680.277344 215.109375 C 674.480469 206.019531 669.597656 194.625 665.648438 181.222656 C 661.699219 167.816406 661.160156 157.019531 661.714844 146.238281 C 662.269531 135.457031 664.296875 125.707031 667.496094 116.953125 C 670.695312 108.203125 675.089844 100.429688 680.355469 94.175781 C 685.625 87.925781 696.539062 79.558594 709.023438 71.242188 C 721.507812 62.925781 735.089844 55.679688 749.316406 48.613281 C 763.542969 41.546875 778.03125 33.285156 783.6875 23.496094 C 798.035156 10.972656 787.542969 7.996094 796.238281 5.261719 Z M 796.238281 5.261719 " fill-opacity="1" fill-rule="nonzero"/><path fill="#00355D" d="M 785.320312 5.261719 C 794.191406 7.660156 816.160156 0.488281 833.140625 6.664062 C 850.125 12.84375 865.6875 21.097656 880.046875 30.597656 C 894.402344 40.101562 907.761719 50.425781 918.375 61.808594 C 928.988281 73.195312 935.300781 83.675781 940.113281 94.949219 C 944.929688 106.222656 948.214844 118.253906 950.117188 130.996094 C 952.019531 143.738281 952.691406 157.203125 950.886719 173.539062 C 949.082031 189.875 944.992188 205.878906 938.921875 220.097656 C 932.851562 234.320312 925.011719 246.832031 915.222656 257.445312 C 905.433594 268.0625 893.726562 276.59375 876.410156 282.90625 C 859.089844 289.21875 839.863281 293.21875 821.863281 294.328125 C 803.867188 295.441406 787.195312 293.25 772.457031 287.332031 C 757.71875 281.414062 746.023438 271.488281 742.140625 260.632812 C 738.257812 249.773438 743.105469 243.980469 747.871094 247.96875 C 747.871094 247.96875 763.925781 246.191406 773.648438 248.636719 C 783.375 251.082031 793.875 252.597656 806.265625 252.667969 C 818.65625 252.734375 833.273438 251.277344 849.796875 247.617188 C 866.324219 243.957031 873.765625 240.617188 881.300781 235.839844 C 888.835938 231.0625 895.488281 224.199219 901.28125 215.109375 C 907.078125 206.019531 911.960938 194.625 915.910156 181.222656 C 919.859375 167.816406 920.398438 157.019531 919.84375 146.238281 C 919.289062 135.457031 917.261719 125.707031 914.0625 116.953125 C 910.863281 108.203125 906.46875 100.429688 901.203125 94.175781 C 895.933594 87.925781 885.019531 79.558594 872.535156 71.242188 C 860.046875 62.925781 846.46875 55.679688 832.242188 48.613281 C 818.015625 41.546875 803.527344 33.285156 797.871094 23.496094 C 783.523438 10.972656 794.015625 7.996094 785.320312 5.261719 Z M 785.320312 5.261719 " fill-opacity="1" fill-rule="nonzero"/><path fill="#00355D" d="M 786.503906 454.464844 C 791.199219 449.6875 805.980469 444.683594 822.480469 438.851562 C 838.976562 433.015625 858.722656 427.222656 882.003906 421.136719 C 905.289062 415.054688 932.1875 408.167969 953.667969 405.34375 C 975.152344 402.519531 988.648438 402.539062 1001.800781 404.84375 C 1014.957031 407.144531 1027.78125 411.667969 1040.679688 417.769531 C 1053.574219 423.875 1066.394531 432.210938 1079.929688 443.8125 C 1093.46875 455.414062 1105.535156 469.59375 1115.117188 483.207031 C 1124.695312 496.824219 1131.429688 510.214844 1135.421875 523.332031 C 1139.417969 536.449219 1141.023438 549.289062 1141.042969 565.613281 C 1141.0625 581.9375 1139.691406 599.648438 1136.414062 617.449219 C 1133.140625 635.253906 1127.953125 653.320312 1121.398438 672.140625 C 1114.847656 690.960938 1107.496094 711.203125 1105.363281 730.214844 C 1103.230469 749.226562 1107.871094 752.078125 1114.015625 742.085938 C 1114.015625 742.085938 1140.46875 730.152344 1152.789062 709.925781 C 1165.109375 689.703125 1174.171875 668.660156 1179.519531 647.046875 C 1184.867188 625.433594 1187.257812 603.734375 1186.667969 582.578125 C 1186.078125 561.425781 1184.722656 544.601562 1179.988281 527.117188 C 1175.257812 509.628906 1167.785156 492.722656 1157.347656 476.566406 C 1146.90625 460.40625 1133.859375 444.796875 1117.730469 430.0625 C 1101.597656 415.324219 1086.941406 403.21875 1071.546875 394.003906 C 1056.15625 384.789062 1040.183594 378.054688 1023.71875 374.058594 C 1007.25 370.066406 990.503906 368.640625 973.398438 369.644531 C 956.296875 370.644531 925.527344 378.058594 898.726562 385.269531 C 871.925781 392.484375 849.226562 401.398438 830.90625 411.96875 C 812.589844 422.539062 798.984375 434.5 794.414062 441.390625 C 785.160156 453.179688 791.1875 449.570312 786.503906 454.464844 Z M 786.503906 454.464844 " fill-opacity="1" fill-rule="nonzero"/><path fill="#00355D" d="M 795.054688 454.464844 C 790.359375 449.6875 775.578125 444.683594 759.078125 438.851562 C 742.578125 433.015625 722.835938 427.222656 699.554688 421.136719 C 676.269531 415.054688 649.371094 408.167969 627.890625 405.34375 C 606.40625 402.519531 592.910156 402.539062 579.753906 404.84375 C 566.601562 407.144531 553.777344 411.667969 540.878906 417.769531 C 527.984375 423.875 515.164062 432.210938 501.628906 443.8125 C 488.089844 455.414062 476.023438 469.59375 466.441406 483.207031 C 456.863281 496.824219 450.128906 510.214844 446.136719 523.332031 C 442.140625 536.449219 440.535156 549.289062 440.515625 565.613281 C 440.496094 581.9375 441.867188 599.648438 445.144531 617.449219 C 448.417969 635.253906 453.605469 653.320312 460.15625 672.140625 C 466.710938 690.960938 474.058594 711.203125 476.191406 730.214844 C 478.324219 749.226562 473.6875 752.078125 467.542969 742.085938 C 467.542969 742.085938 441.089844 730.152344 428.769531 709.925781 C 416.449219 689.703125 407.386719 668.660156 402.039062 647.046875 C 396.691406 625.433594 394.300781 603.734375 394.890625 582.578125 C 395.480469 561.425781 396.835938 544.601562 401.566406 527.117188 C 406.300781 509.628906 413.773438 492.722656 424.210938 476.566406 C 434.652344 460.40625 447.699219 444.796875 463.828125 430.0625 C 479.960938 415.324219 494.617188 403.21875 510.011719 394.003906 C 525.402344 384.789062 541.375 378.054688 557.839844 374.058594 C 574.308594 370.066406 591.054688 368.640625 608.160156 369.644531 C 625.261719 370.644531 656.03125 378.058594 682.832031 385.269531 C 709.632812 392.484375 732.332031 401.398438 750.652344 411.96875 C 768.96875 422.539062 782.574219 434.5 787.144531 441.390625 C 796.398438 453.179688 790.371094 449.570312 795.054688 454.464844 Z M 795.054688 454.464844 " fill-opacity="1" fill-rule="nonzero"/><path fill="#00355D" d="M 412.015625 540.347656 C 409.753906 548.75 403.835938 565.425781 402.417969 582.875 C 401 600.324219 400.746094 618.230469 403.769531 636.300781 C 406.789062 654.371094 412.171875 672.5625 422.867188 695.71875 C 433.5625 718.878906 449.390625 746.796875 466.890625 775.496094 C 484.394531 804.191406 503.824219 833.566406 525.714844 863.242188 C 547.601562 892.917969 572.519531 922.363281 596.550781 940.652344 C 620.578125 958.945312 631.414062 949.519531 618.523438 934.703125 C 618.523438 934.703125 602.121094 897.191406 578.671875 868.511719 C 555.21875 839.835938 533.453125 812.027344 513.585938 784.859375 C 493.722656 757.6875 476.535156 730.644531 461.695312 704.105469 C 446.851562 677.566406 439.511719 662.015625 433.347656 646.394531 C 427.183594 630.773438 423.933594 614.855469 421.222656 598.949219 C 418.511719 583.042969 418.414062 566.855469 417.570312 558.5 C 418.570312 541.796875 410.171875 548.691406 412.015625 540.347656 Z M 412.015625 540.347656 " fill-opacity="1" fill-rule="nonzero"/><path fill="#00355D" d="M 1155.117188 647.414062 L 1153.652344 651.507812 C 1106.023438 766.128906 1048.417969 867.683594 980.835938 956.175781 C 910.65625 1048.121094 823.125 1134.636719 718.246094 1215.71875 C 719.015625 1221.324219 724.472656 1233.378906 734.617188 1251.878906 L 762.640625 1228.503906 C 854.898438 1148.753906 938.945312 1059.9375 1014.777344 962.0625 C 1065.699219 898.617188 1104.363281 837.558594 1130.769531 778.890625 C 1143.847656 750.496094 1153.457031 722.847656 1159.597656 695.949219 C 1162.128906 681.507812 1163.109375 672.976562 1162.546875 670.359375 C 1162.644531 665.03125 1160.273438 660.03125 1155.433594 655.359375 C 1154.722656 652.820312 1154.617188 650.171875 1155.117188 647.414062 Z M 1155.117188 647.414062 " fill-opacity="1" fill-rule="nonzero"/><path fill="#00355D" d="M 559.367188 882.125 C 563.386719 885.222656 571.136719 897.125 583.214844 911.828125 C 595.296875 926.527344 612 944.054688 632.066406 965.789062 C 652.132812 987.519531 676.351562 1012.683594 699.78125 1030.277344 C 723.210938 1047.867188 728.992188 1042.324219 715.648438 1028.402344 C 715.648438 1028.402344 695.769531 993.964844 671.960938 970.636719 C 648.152344 947.304688 627.734375 928.105469 610.523438 913.21875 C 593.316406 898.335938 577.875 889.425781 571.222656 886.5625 C 560.480469 880.636719 563.457031 885.183594 559.367188 882.125 Z M 559.367188 882.125 " fill-opacity="1" fill-rule="nonzero"/><path fill="#00355D" d="M 711.976562 1035.6875 C 722.15625 1027.574219 749.222656 1015.832031 772.1875 995.65625 C 795.152344 975.480469 818.160156 951.679688 841.691406 924.855469 C 865.222656 898.027344 889.832031 868.691406 908.945312 843.925781 C 928.058594 819.160156 939.210938 800.890625 949.382812 782.507812 C 959.554688 764.121094 968.03125 745.203125 975.351562 726.03125 C 982.671875 706.855469 989.121094 687.453125 993.621094 670.105469 C 998.121094 652.761719 1000.878906 638.765625 1002.171875 626.039062 C 1003.464844 613.308594 1003.296875 601.863281 1002.367188 591.621094 C 1001.433594 581.378906 999.1875 572.207031 995.847656 563.1875 C 992.511719 554.171875 987.582031 544.023438 981.433594 535.117188 C 975.289062 526.210938 967.847656 518.6875 959.136719 512.855469 C 950.421875 507.023438 940.699219 502.875 923.71875 500.988281 C 906.738281 499.101562 885.847656 502.238281 866.503906 510.515625 C 847.160156 518.796875 829.871094 532.074219 814.980469 549.953125 C 800.089844 567.832031 788.550781 590.53125 786.445312 611.28125 C 784.339844 632.03125 791.613281 635.441406 797.074219 623.792969 C 797.074219 623.792969 820.167969 607.054688 832.183594 590.316406 C 844.195312 573.578125 856.082031 560.863281 868.691406 552.257812 C 881.300781 543.65625 894.878906 538.734375 910.078125 537.367188 C 925.28125 535.996094 929.375 537.054688 934.722656 539.449219 C 940.066406 541.847656 944.789062 545.351562 949.183594 550.011719 C 953.582031 554.671875 957.53125 560.804688 961.105469 568.742188 C 964.679688 576.679688 966.535156 581.605469 967.386719 587.671875 C 968.238281 593.742188 968.21875 601.800781 967.085938 611.65625 C 965.957031 621.515625 964.632812 633.199219 962.558594 646.570312 C 960.484375 659.941406 956.269531 678.347656 950.53125 696.292969 C 944.792969 714.238281 937.65625 731.84375 928.96875 749.027344 C 920.285156 766.210938 910.242188 783.046875 898.761719 799.167969 C 887.285156 815.292969 862.097656 845.371094 837.625 872.960938 C 813.152344 900.554688 790.214844 925.890625 768.878906 949.089844 C 747.542969 972.285156 729.089844 994.742188 722.679688 1007.863281 C 706.554688 1029.523438 721.6875 1027.144531 711.976562 1035.6875 Z M 711.976562 1035.6875 " fill-opacity="1" fill-rule="nonzero"/><path fill="#00355D" d="M 795.9375 611.855469 C 796.601562 603.808594 806.09375 588.460938 806.984375 574.019531 C 807.871094 559.574219 806.496094 546.035156 801.335938 534.167969 C 796.171875 522.300781 787.992188 512.570312 780.371094 507.746094 C 772.753906 502.921875 766.664062 499.851562 760.28125 497.566406 C 753.898438 495.28125 747.148438 494.144531 740.246094 493.324219 C 733.347656 492.507812 726.160156 492.308594 719.09375 492.625 C 712.027344 492.941406 705.292969 493.953125 698.71875 495.402344 C 692.140625 496.855469 685.753906 498.867188 679.296875 500.894531 C 672.835938 502.917969 667.492188 507.261719 658.988281 513.730469 C 650.484375 520.199219 640.429688 528.273438 632.609375 537.542969 C 624.785156 546.8125 619.109375 556.933594 614.160156 567.3125 C 609.210938 577.695312 607.320312 589.058594 607.570312 602.601562 C 607.824219 616.140625 610.183594 631.195312 614.777344 645.21875 C 619.367188 659.238281 626.003906 672.09375 634.898438 683.277344 C 643.792969 694.460938 655.632812 702.652344 666.761719 704.394531 C 677.890625 706.140625 687.042969 694.914062 682.257812 691.011719 C 682.257812 691.011719 680.589844 675.003906 675.222656 666.523438 C 669.855469 658.042969 665.03125 649.675781 661.042969 640.507812 C 657.054688 631.339844 654.003906 621.050781 651.792969 609.429688 C 649.582031 597.808594 649.132812 591.859375 649.558594 585.765625 C 649.984375 579.675781 651.472656 572.886719 655.671875 566.152344 C 659.871094 559.414062 665.578125 552.128906 673.046875 544.523438 C 680.515625 536.917969 683.765625 534.964844 687.878906 532.636719 C 691.992188 530.308594 696.464844 528.875 700.96875 527.453125 C 705.472656 526.03125 710.246094 525.332031 715.230469 524.882812 C 720.210938 524.433594 725.8125 524.429688 730.667969 524.886719 C 735.527344 525.339844 739.667969 526.492188 743.019531 528.21875 C 746.371094 529.941406 749.167969 531.65625 751.046875 534.265625 C 752.929688 536.871094 757.410156 541.882812 760.761719 547.027344 C 764.113281 552.171875 768.101562 558.949219 772.695312 568.222656 C 777.289062 577.496094 780.902344 589.652344 786 596.648438 C 790.726562 611.617188 796.300781 603.878906 795.9375 611.855469 Z M 795.9375 611.855469 " fill-opacity="1" fill-rule="nonzero"/><g clip-path="url(#83cfd2b984)"><path fill="#00355D" d="M 711.195312 1217.515625 C 697.019531 1205.605469 680.675781 1169.003906 654.242188 1148.777344 C 627.808594 1128.550781 601.3125 1112.726562 575.558594 1100.449219 C 549.804688 1088.171875 525.101562 1078.992188 499.960938 1071.304688 C 474.820312 1063.613281 448.066406 1057.652344 422.085938 1054.613281 C 396.101562 1051.574219 370.851562 1051.730469 346.390625 1055.101562 C 321.929688 1058.472656 298.308594 1065.050781 273.175781 1077.542969 C 248.042969 1090.035156 224.886719 1107.402344 206.484375 1127.488281 C 188.082031 1147.574219 174.480469 1170.226562 165.769531 1195.292969 C 157.058594 1220.355469 152.988281 1247.679688 156.277344 1275.421875 C 159.566406 1303.167969 169.800781 1325.632812 184.875 1345.082031 C 199.945312 1364.53125 219.480469 1380.941406 243.390625 1394.078125 C 267.300781 1407.214844 295.390625 1417.210938 323.3125 1423.65625 C 351.230469 1430.105469 377.179688 1432.9375 404.25 1433.058594 C 431.320312 1433.179688 459.488281 1430.550781 488.734375 1425.214844 C 517.980469 1419.878906 548.300781 1411.859375 569.226562 1405.332031 C 590.148438 1398.808594 604.148438 1393.523438 621.796875 1385.84375 C 639.445312 1378.167969 660.867188 1367.992188 686.203125 1355.421875 C 711.542969 1342.851562 740.769531 1327.769531 782.40625 1303.738281 C 824.042969 1279.710938 868.871094 1252.734375 905.007812 1231.332031 C 941.144531 1209.929688 968.546875 1194.105469 987.132812 1184.050781 C 1005.714844 1174 1014.550781 1169.820312 1026.371094 1165.171875 C 1038.191406 1160.527344 1056.726562 1153.550781 1074.835938 1147.746094 C 1092.941406 1141.941406 1110.683594 1137.503906 1128.003906 1134.199219 C 1145.324219 1130.898438 1162.257812 1128.820312 1179.925781 1127.949219 C 1197.597656 1127.082031 1214.1875 1128.308594 1228.46875 1131.929688 C 1242.75 1135.546875 1254.945312 1141.507812 1265.5 1149.820312 C 1276.050781 1158.128906 1285.132812 1169.128906 1292.082031 1182.921875 C 1299.035156 1196.714844 1303.566406 1212.632812 1305.296875 1228.976562 C 1307.03125 1245.320312 1306.066406 1262.238281 1302.503906 1279.980469 C 1298.941406 1297.722656 1292.746094 1316.460938 1281.96875 1336.332031 C 1271.191406 1356.203125 1256.386719 1375.894531 1240.121094 1392.472656 C 1223.855469 1409.050781 1206.21875 1422.652344 1187.140625 1433.371094 C 1168.066406 1444.085938 1147.515625 1452.101562 1131.8125 1455.96875 C 1116.113281 1459.835938 1105.65625 1461.214844 1095.511719 1462.21875 C 1085.363281 1463.222656 1075.515625 1463.722656 1065.964844 1463.59375 C 1056.414062 1463.464844 1047.164062 1462.972656 1037.824219 1462.199219 C 1028.480469 1461.425781 1017.398438 1460.238281 1002.835938 1458.101562 C 988.269531 1455.964844 970.3125 1452.917969 948.988281 1449.109375 C 927.660156 1445.304688 903.082031 1440.210938 884.074219 1436.636719 C 865.070312 1433.066406 855.15625 1431.847656 845.363281 1430.84375 C 835.570312 1429.839844 825.898438 1429.003906 816.347656 1428.402344 C 806.796875 1427.800781 797.359375 1427.480469 780.625 1427.179688 C 763.890625 1426.878906 739.84375 1427.21875 716.375 1428.914062 C 692.90625 1430.613281 670.03125 1433.527344 647.867188 1438.128906 C 625.707031 1442.730469 604.613281 1449.996094 590.644531 1459.710938 C 576.675781 1469.421875 581.355469 1485.660156 591.5625 1482.71875 C 591.5625 1482.71875 614.640625 1487.4375 635.230469 1484.101562 C 655.824219 1480.761719 676.738281 1477.269531 698.277344 1474.488281 C 719.816406 1471.710938 742.042969 1469.933594 765.089844 1468.953125 C 788.140625 1467.972656 796.882812 1467.855469 805.738281 1467.925781 C 814.589844 1467.996094 823.597656 1468.300781 832.753906 1468.832031 C 841.914062 1469.363281 851.226562 1470.0625 860.28125 1470.933594 C 869.335938 1471.808594 896.054688 1476.75 919.878906 1480.953125 C 943.699219 1485.160156 964.210938 1488.792969 981.503906 1491.519531 C 998.796875 1494.246094 1012.917969 1496.0625 1023.726562 1497.144531 C 1034.53125 1498.230469 1044.425781 1499.226562 1055.027344 1499.613281 C 1065.632812 1500.003906 1076.472656 1499.875 1087.558594 1499.328125 C 1098.640625 1498.78125 1109.972656 1497.703125 1122.09375 1495.945312 C 1134.214844 1494.183594 1159.0625 1487.449219 1182.53125 1477.332031 C 1206 1467.214844 1227.734375 1453.699219 1247.667969 1436.945312 C 1267.601562 1420.191406 1285.78125 1400.355469 1302.304688 1377.167969 C 1318.824219 1353.984375 1329.597656 1331.484375 1336.734375 1309.851562 C 1343.875 1288.21875 1347.398438 1266.671875 1347.300781 1245.449219 C 1347.207031 1224.230469 1343.636719 1203.515625 1336.488281 1183.207031 C 1329.34375 1162.902344 1318.097656 1145.257812 1304.648438 1131.164062 C 1291.199219 1117.074219 1275.304688 1106.222656 1257.222656 1099.003906 C 1239.140625 1091.785156 1219.238281 1088.097656 1197.972656 1087.839844 C 1176.703125 1087.582031 1158.121094 1089.167969 1139.316406 1092.097656 C 1120.507812 1095.027344 1101.46875 1099.316406 1082.210938 1104.992188 C 1062.957031 1110.667969 1043.441406 1117.578125 1024.0625 1125.65625 C 1004.679688 1133.738281 1000.066406 1135.171875 986.152344 1142.539062 C 972.242188 1149.90625 950.371094 1162.53125 919.929688 1180.574219 C 889.488281 1198.617188 850.480469 1222.238281 802.992188 1251.253906 C 755.503906 1280.269531 724.464844 1296.707031 696.929688 1311.011719 C 669.398438 1325.3125 645.84375 1337.035156 626.320312 1346.183594 C 606.796875 1355.328125 591.386719 1361.871094 580.058594 1365.917969 C 568.726562 1369.964844 538.839844 1379.660156 510.558594 1386.5625 C 482.277344 1393.46875 455.292969 1397.964844 429.554688 1399.878906 C 403.8125 1401.796875 379.316406 1401.140625 356.019531 1398.074219 C 332.722656 1395.007812 304.046875 1388.148438 280.019531 1378.644531 C 255.992188 1369.144531 236.378906 1357.230469 220.972656 1342.949219 C 205.570312 1328.667969 194.179688 1311.914062 186.582031 1293.082031 C 178.984375 1274.25 179.191406 1249.566406 183.582031 1226.160156 C 187.96875 1202.75 197.015625 1181.761719 210.378906 1162.917969 C 223.742188 1144.074219 241.632812 1127.332031 263.90625 1112.636719 C 286.179688 1097.941406 306.480469 1091.019531 328.0625 1086.652344 C 349.644531 1082.285156 371.894531 1080.792969 394.882812 1082.308594 C 417.871094 1083.820312 441.652344 1088.214844 466.371094 1095.871094 C 491.089844 1103.527344 512.667969 1111.675781 534.808594 1123.003906 C 556.953125 1134.332031 580.382812 1148.320312 605.4375 1164.644531 C 630.496094 1180.96875 658.0625 1198.660156 677.523438 1202.15625 C 711.164062 1217.554688 697.015625 1205.609375 711.195312 1217.515625 Z M 711.195312 1217.515625 " fill-opacity="1" fill-rule="nonzero"/></g><g fill="#000000" fill-opacity="1"><g transform="translate(59.815977, 1466.396446)"><g><path d="M 0.578125 -0.703125 C 0.578125 -0.972656 0.648438 -1.175781 0.796875 -1.3125 C 0.941406 -1.457031 1.15625 -1.53125 1.4375 -1.53125 C 1.707031 -1.53125 1.914062 -1.457031 2.0625 -1.3125 C 2.207031 -1.164062 2.28125 -0.960938 2.28125 -0.703125 C 2.28125 -0.441406 2.203125 -0.238281 2.046875 -0.09375 C 1.898438 0.0507812 1.695312 0.125 1.4375 0.125 C 1.15625 0.125 0.941406 0.0546875 0.796875 -0.078125 C 0.648438 -0.222656 0.578125 -0.429688 0.578125 -0.703125 Z M 0.578125 -0.703125 "/></g></g></g></svg>